# Blender v2.69 (sub 0) OBJ File: 'wall.blend'
# www.blender.org
o Cube
v 1.000000 0.000000 -0.250000
v 1.000000 0.000000 0.250000
v -1.000000 0.000000 0.250000
v -1.000000 0.000000 -0.250000
v 1.000000 2.000000 -0.249999
v 0.999999 2.000000 0.250001
v -1.000000 2.000000 0.250000
v -1.000000 2.000000 -0.250000
vt 0.400021 0.500414
vt 0.400021 0.600393
vt 0.000103 0.500414
vt 0.735450 0.494657
vt 0.093827 0.494657
vt 0.093827 0.334252
vt 0.825839 0.003548
vt 0.825839 0.567641
vt 0.668403 0.003548
vt 1.075049 -0.000177
vt 1.075049 0.563916
vt 0.421775 -0.000177
vt 0.414169 0.084015
vt 0.414169 0.648108
vt 0.256733 0.084015
vt -0.252181 0.564661
vt -0.252181 0.000569
vt 0.416046 0.564661
vt 0.000103 0.600393
vt 0.735450 0.334251
vt 0.668403 0.567641
vt 0.421775 0.563916
vt 0.256733 0.648107
vt 0.416046 0.000568
vn 0.000000 -1.000000 0.000000
vn 0.000000 1.000000 -0.000000
vn 1.000000 -0.000000 0.000000
vn -0.000000 -0.000000 1.000000
vn -1.000000 -0.000000 -0.000001
vn 0.000000 0.000000 -1.000000
vn 1.000000 0.000000 0.000002
s off
f 1/1/1 2/2/1 4/3/1
f 5/4/2 8/5/2 7/6/2
f 1/7/3 5/8/3 2/9/3
f 2/10/4 6/11/4 3/12/4
f 3/13/5 7/14/5 4/15/5
f 5/16/6 1/17/6 8/18/6
f 2/2/1 3/19/1 4/3/1
f 6/20/2 5/4/2 7/6/2
f 5/8/7 6/21/7 2/9/7
f 6/11/4 7/22/4 3/12/4
f 7/14/5 8/23/5 4/15/5
f 1/17/6 4/24/6 8/18/6
